<svg xmlns="http://www.w3.org/2000/svg" width="18" height="18" viewBox="0 0 18 18">
                                                                <path id="prefix__help-circle-outline" d="M10.1 16.4h1.8v-1.8h-1.8v1.8M11 2a9 9 0 1 0 9 9 9 9 0 0 0-9-9m0 16.2a7.2 7.2 0 1 1 7.2-7.2 7.21 7.21 0 0 1-7.2 7.2m0-12.6a3.6 3.6 0 0 0-3.6 3.6h1.8a1.8 1.8 0 0 1 3.6 0c0 1.8-2.7 1.575-2.7 4.5h1.8c0-2.025 2.7-2.25 2.7-4.5A3.6 3.6 0 0 0 11 5.6z" transform="translate(-2 -2)" style="fill:#cecee2"></path>
                                                            </svg>