<svg width="18" height="18" viewBox="0 0 18 18" fill="none" xmlns="http://www.w3.org/2000/svg">
<path d="M15.75 1.125H9C8.70172 1.1253 8.41575 1.24392 8.20483 1.45483C7.99392 1.66575 7.8753 1.95172 7.875 2.25V7.875H2.25C1.95172 7.8753 1.66575 7.99392 1.45483 8.20483C1.24392 8.41575 1.1253 8.70172 1.125 9V16.875H16.875V2.25C16.8747 1.95172 16.7561 1.66575 16.5452 1.45483C16.3343 1.24392 16.0483 1.1253 15.75 1.125ZM5.0625 15.75V11.8125H7.3125V15.75H5.0625ZM15.75 15.75H8.4375V11.25C8.4375 11.1008 8.37824 10.9577 8.27275 10.8523C8.16726 10.7468 8.02418 10.6875 7.875 10.6875H4.5C4.35082 10.6875 4.20774 10.7468 4.10225 10.8523C3.99676 10.9577 3.9375 11.1008 3.9375 11.25V15.75H2.25V9H9V2.25H15.75V15.75Z" fill="#505151"/>
<path d="M10.125 4.5H11.25V5.625H10.125V4.5Z" fill="#505151"/>
<path d="M13.5 4.5H14.625V5.625H13.5V4.5Z" fill="#505151"/>
<path d="M10.125 7.875H11.25V9H10.125V7.875Z" fill="#505151"/>
<path d="M13.5 7.875H14.625V9H13.5V7.875Z" fill="#505151"/>
<path d="M10.125 11.25H11.25V12.375H10.125V11.25Z" fill="#505151"/>
<path d="M13.5 11.25H14.625V12.375H13.5V11.25Z" fill="#505151"/>
</svg>
